<svg xmlns="http://www.w3.org/2000/svg" viewBox="0 0 1800 520" preserveAspectRatio="xMidYMid slice">
  <rect width="1800" height="520" fill="#ffffff"/>
  <g opacity="0.88">
    <path d="M1060 -60 C1220 90 1360 190 1540 250 C1630 280 1705 335 1830 485" fill="none" stroke="#D7C6B5" stroke-width="34" stroke-linecap="round"/>
    <path d="M1120 -40 C1260 90 1390 175 1580 232 C1680 262 1755 326 1870 472" fill="none" stroke="#F2E8DE" stroke-width="18" stroke-linecap="round"/>
    <path d="M990 540 C1140 410 1270 340 1460 306 C1600 280 1700 210 1815 78" fill="none" stroke="#E6D7C8" stroke-width="28" stroke-linecap="round"/>
    <path d="M1180 560 C1310 430 1440 380 1620 350 C1720 334 1780 296 1848 224" fill="none" stroke="#C8602A" stroke-width="5" stroke-linecap="round" opacity="0.32"/>
    <path d="M1370 -20 C1480 110 1595 165 1760 184" fill="none" stroke="#111111" stroke-width="4" stroke-linecap="round" opacity="0.16"/>
    <circle cx="1510" cy="126" r="86" fill="none" stroke="#C8602A" stroke-width="3" opacity="0.22"/>
    <circle cx="1628" cy="382" r="130" fill="none" stroke="#111111" stroke-width="3" opacity="0.08"/>
  </g>
  <g opacity="0.08">
    <path d="M80 430 H620" stroke="#111111" stroke-width="1"/>
    <path d="M80 458 H360" stroke="#111111" stroke-width="1"/>
  </g>
</svg>