<svg xmlns="http://www.w3.org/2000/svg" width="2048" height="889" viewBox="0 0 2048 889" role="img" aria-label="Having logo">
<title>Having logo</title>
<desc>Vectorized logo generated from supplied PNG artwork.</desc>
<path fill="#7BC27A" fill-rule="evenodd" d="M 423.0 410.0 L 421.0 412.0 L 421.0 433.0 L 422.0 434.0 L 422.0 440.0 L 423.0 441.0 L 423.0 448.0 L 425.0 452.0 L 425.0 457.0 L 427.0 460.0 L 427.0 463.0 L 429.0 466.0 L 429.0 469.0 L 441.0 493.0 L 457.0 513.0 L 479.0 531.0 L 505.0 544.0 L 508.0 544.0 L 511.0 546.0 L 514.0 546.0 L 518.0 548.0 L 527.0 549.0 L 527.0 488.0 L 517.0 484.0 L 505.0 476.0 L 497.0 468.0 L 491.0 460.0 L 485.0 448.0 L 483.0 442.0 L 482.0 434.0 L 481.0 433.0 L 481.0 403.0 L 472.0 400.0 L 463.0 400.0 L 462.0 399.0 L 458.0 399.0 L 457.0 400.0 L 447.0 400.0 L 443.0 402.0 L 440.0 402.0 L 434.0 404.0 Z M 481.0 277.0 L 478.0 277.0 L 473.0 279.0 L 468.0 279.0 L 456.0 283.0 L 453.0 283.0 L 450.0 285.0 L 447.0 285.0 L 444.0 287.0 L 437.0 289.0 L 421.0 297.0 L 421.0 344.0 L 426.0 342.0 L 433.0 341.0 L 434.0 340.0 L 440.0 340.0 L 446.0 338.0 L 473.0 338.0 L 474.0 339.0 L 481.0 340.0 Z M 480.0 106.0 L 479.0 107.0 L 460.0 108.0 L 454.0 110.0 L 447.0 110.0 L 442.0 112.0 L 436.0 112.0 L 432.0 114.0 L 427.0 114.0 L 423.0 116.0 L 419.0 116.0 L 415.0 118.0 L 405.0 120.0 L 402.0 122.0 L 399.0 122.0 L 396.0 124.0 L 393.0 124.0 L 390.0 126.0 L 387.0 126.0 L 384.0 128.0 L 372.0 132.0 L 365.0 136.0 L 363.0 136.0 L 343.0 146.0 L 341.0 148.0 L 339.0 148.0 L 305.0 170.0 L 271.0 198.0 L 271.0 199.0 L 269.0 200.0 L 269.0 201.0 L 267.0 202.0 L 267.0 203.0 L 265.0 204.0 L 265.0 205.0 L 263.0 206.0 L 263.0 207.0 L 261.0 208.0 L 261.0 209.0 L 249.0 221.0 L 232.0 242.0 L 230.0 246.0 L 222.0 256.0 L 221.0 259.0 L 218.0 262.0 L 217.0 265.0 L 209.0 277.0 L 206.0 284.0 L 204.0 286.0 L 204.0 288.0 L 202.0 290.0 L 198.0 298.0 L 198.0 300.0 L 196.0 302.0 L 196.0 304.0 L 192.0 311.0 L 192.0 313.0 L 184.0 331.0 L 184.0 334.0 L 182.0 337.0 L 182.0 340.0 L 180.0 343.0 L 180.0 346.0 L 176.0 357.0 L 176.0 361.0 L 174.0 365.0 L 174.0 369.0 L 172.0 373.0 L 172.0 378.0 L 170.0 383.0 L 170.0 390.0 L 168.0 395.0 L 168.0 404.0 L 167.0 405.0 L 167.0 410.0 L 166.0 411.0 L 166.0 427.0 L 165.0 428.0 L 165.0 462.0 L 166.0 463.0 L 166.0 479.0 L 167.0 480.0 L 167.0 485.0 L 168.0 486.0 L 168.0 495.0 L 170.0 501.0 L 170.0 507.0 L 172.0 512.0 L 172.0 517.0 L 174.0 521.0 L 174.0 525.0 L 176.0 529.0 L 176.0 533.0 L 178.0 537.0 L 180.0 547.0 L 182.0 550.0 L 182.0 553.0 L 184.0 556.0 L 184.0 559.0 L 186.0 562.0 L 186.0 564.0 L 188.0 567.0 L 192.0 579.0 L 196.0 586.0 L 196.0 588.0 L 204.0 604.0 L 210.0 613.0 L 210.0 615.0 L 229.0 644.0 L 243.0 662.0 L 269.0 690.0 L 270.0 690.0 L 280.0 700.0 L 297.0 714.0 L 312.0 725.0 L 321.0 730.0 L 324.0 733.0 L 341.0 742.0 L 343.0 744.0 L 363.0 754.0 L 365.0 754.0 L 374.0 759.0 L 379.0 760.0 L 384.0 763.0 L 387.0 763.0 L 390.0 765.0 L 408.0 771.0 L 411.0 771.0 L 415.0 773.0 L 418.0 773.0 L 423.0 775.0 L 427.0 775.0 L 431.0 777.0 L 436.0 777.0 L 441.0 779.0 L 451.0 780.0 L 452.0 781.0 L 460.0 781.0 L 461.0 782.0 L 466.0 782.0 L 467.0 783.0 L 480.0 783.0 L 481.0 784.0 L 510.0 785.0 L 511.0 784.0 L 520.0 784.0 L 521.0 783.0 L 534.0 782.0 L 539.0 780.0 L 544.0 780.0 L 548.0 778.0 L 551.0 778.0 L 569.0 772.0 L 593.0 760.0 L 614.0 745.0 L 624.0 735.0 L 625.0 735.0 L 637.0 722.0 L 648.0 707.0 L 664.0 677.0 L 664.0 675.0 L 666.0 672.0 L 670.0 660.0 L 670.0 657.0 L 672.0 652.0 L 672.0 648.0 L 674.0 643.0 L 675.0 630.0 L 676.0 629.0 L 676.0 257.0 L 662.0 245.0 L 647.0 234.0 L 631.0 224.0 L 624.0 221.0 L 622.0 219.0 L 616.0 217.0 L 616.0 436.0 L 614.0 440.0 L 614.0 444.0 L 607.0 459.0 L 602.0 466.0 L 588.0 479.0 L 588.0 545.0 L 598.0 542.0 L 612.0 535.0 L 614.0 533.0 L 616.0 534.0 L 616.0 628.0 L 615.0 629.0 L 614.0 638.0 L 612.0 642.0 L 612.0 645.0 L 610.0 651.0 L 608.0 654.0 L 606.0 661.0 L 604.0 663.0 L 597.0 676.0 L 591.0 684.0 L 576.0 699.0 L 562.0 709.0 L 555.0 712.0 L 553.0 714.0 L 551.0 714.0 L 546.0 717.0 L 534.0 721.0 L 531.0 721.0 L 530.0 722.0 L 526.0 722.0 L 520.0 724.0 L 508.0 724.0 L 507.0 725.0 L 499.0 725.0 L 498.0 724.0 L 479.0 724.0 L 478.0 723.0 L 463.0 722.0 L 462.0 721.0 L 457.0 721.0 L 456.0 720.0 L 451.0 720.0 L 446.0 718.0 L 442.0 718.0 L 430.0 714.0 L 427.0 714.0 L 423.0 712.0 L 420.0 712.0 L 411.0 708.0 L 408.0 708.0 L 405.0 706.0 L 398.0 704.0 L 393.0 701.0 L 391.0 701.0 L 362.0 686.0 L 354.0 680.0 L 351.0 679.0 L 348.0 676.0 L 345.0 675.0 L 329.0 663.0 L 315.0 650.0 L 314.0 650.0 L 299.0 635.0 L 279.0 611.0 L 262.0 585.0 L 250.0 562.0 L 250.0 560.0 L 248.0 558.0 L 248.0 556.0 L 240.0 538.0 L 240.0 535.0 L 238.0 532.0 L 238.0 529.0 L 236.0 526.0 L 236.0 523.0 L 234.0 519.0 L 234.0 515.0 L 232.0 511.0 L 232.0 507.0 L 230.0 502.0 L 230.0 497.0 L 228.0 492.0 L 228.0 485.0 L 226.0 479.0 L 225.0 453.0 L 224.0 452.0 L 224.0 438.0 L 225.0 437.0 L 226.0 411.0 L 228.0 405.0 L 228.0 398.0 L 230.0 393.0 L 230.0 388.0 L 231.0 387.0 L 232.0 379.0 L 234.0 375.0 L 234.0 371.0 L 236.0 367.0 L 236.0 364.0 L 238.0 361.0 L 238.0 358.0 L 240.0 355.0 L 240.0 352.0 L 242.0 349.0 L 242.0 347.0 L 244.0 344.0 L 248.0 332.0 L 258.0 312.0 L 260.0 310.0 L 262.0 305.0 L 274.0 286.0 L 286.0 270.0 L 299.0 256.0 L 299.0 255.0 L 301.0 254.0 L 301.0 253.0 L 303.0 252.0 L 303.0 251.0 L 310.0 244.0 L 311.0 244.0 L 316.0 238.0 L 329.0 228.0 L 330.0 226.0 L 342.0 218.0 L 344.0 212.0 L 354.0 192.0 L 363.0 178.0 L 374.0 164.0 L 391.0 147.0 L 414.0 130.0 L 435.0 119.0 L 437.0 119.0 L 445.0 115.0 L 457.0 111.0 L 460.0 111.0 L 464.0 109.0 L 469.0 109.0 L 474.0 107.0 L 486.0 106.0 Z"/>
<path fill="#F18B42" fill-rule="evenodd" d="M 487.0 106.0 L 486.0 107.0 L 481.0 107.0 L 480.0 108.0 L 474.0 108.0 L 469.0 110.0 L 464.0 110.0 L 460.0 112.0 L 457.0 112.0 L 445.0 116.0 L 437.0 120.0 L 435.0 120.0 L 414.0 131.0 L 391.0 148.0 L 375.0 164.0 L 358.0 187.0 L 345.0 212.0 L 345.0 214.0 L 343.0 217.0 L 339.0 229.0 L 339.0 232.0 L 337.0 236.0 L 337.0 240.0 L 335.0 245.0 L 334.0 257.0 L 333.0 258.0 L 333.0 633.0 L 353.0 650.0 L 374.0 664.0 L 376.0 664.0 L 381.0 668.0 L 392.0 673.0 L 392.0 460.0 L 393.0 459.0 L 393.0 452.0 L 395.0 448.0 L 395.0 445.0 L 401.0 432.0 L 413.0 417.0 L 426.0 407.0 L 434.0 403.0 L 440.0 401.0 L 443.0 401.0 L 447.0 399.0 L 457.0 399.0 L 458.0 398.0 L 472.0 399.0 L 490.0 405.0 L 502.0 413.0 L 514.0 425.0 L 524.0 443.0 L 524.0 446.0 L 526.0 449.0 L 527.0 459.0 L 528.0 460.0 L 528.0 549.0 L 527.0 550.0 L 528.0 551.0 L 528.0 613.0 L 531.0 612.0 L 537.0 612.0 L 541.0 610.0 L 546.0 610.0 L 550.0 608.0 L 553.0 608.0 L 556.0 606.0 L 559.0 606.0 L 562.0 604.0 L 565.0 604.0 L 587.0 593.0 L 587.0 453.0 L 586.0 452.0 L 586.0 444.0 L 585.0 443.0 L 582.0 428.0 L 580.0 425.0 L 580.0 422.0 L 578.0 419.0 L 578.0 417.0 L 568.0 398.0 L 556.0 382.0 L 544.0 370.0 L 523.0 355.0 L 521.0 355.0 L 519.0 353.0 L 517.0 353.0 L 515.0 351.0 L 513.0 351.0 L 511.0 349.0 L 509.0 349.0 L 506.0 347.0 L 503.0 347.0 L 500.0 345.0 L 497.0 345.0 L 494.0 343.0 L 490.0 343.0 L 486.0 341.0 L 479.0 341.0 L 473.0 339.0 L 446.0 339.0 L 445.0 340.0 L 434.0 341.0 L 422.0 345.0 L 419.0 345.0 L 416.0 347.0 L 409.0 349.0 L 397.0 355.0 L 395.0 357.0 L 392.0 356.0 L 392.0 269.0 L 393.0 268.0 L 393.0 259.0 L 394.0 258.0 L 397.0 243.0 L 407.0 221.0 L 417.0 207.0 L 439.0 186.0 L 448.0 180.0 L 450.0 180.0 L 452.0 178.0 L 458.0 176.0 L 460.0 174.0 L 478.0 168.0 L 483.0 168.0 L 488.0 166.0 L 501.0 166.0 L 502.0 165.0 L 508.0 165.0 L 509.0 166.0 L 531.0 166.0 L 532.0 167.0 L 547.0 168.0 L 552.0 170.0 L 558.0 170.0 L 563.0 172.0 L 567.0 172.0 L 571.0 174.0 L 575.0 174.0 L 579.0 176.0 L 589.0 178.0 L 592.0 180.0 L 595.0 180.0 L 598.0 182.0 L 600.0 182.0 L 603.0 184.0 L 605.0 184.0 L 608.0 186.0 L 611.0 186.0 L 613.0 188.0 L 620.0 190.0 L 622.0 192.0 L 624.0 192.0 L 626.0 194.0 L 628.0 194.0 L 634.0 198.0 L 636.0 198.0 L 638.0 200.0 L 653.0 208.0 L 681.0 228.0 L 682.0 230.0 L 689.0 235.0 L 720.0 267.0 L 733.0 284.0 L 750.0 311.0 L 763.0 338.0 L 763.0 340.0 L 767.0 348.0 L 773.0 366.0 L 773.0 369.0 L 775.0 373.0 L 775.0 376.0 L 777.0 381.0 L 777.0 385.0 L 779.0 390.0 L 779.0 395.0 L 781.0 400.0 L 781.0 408.0 L 782.0 409.0 L 782.0 414.0 L 783.0 415.0 L 783.0 428.0 L 784.0 429.0 L 784.0 460.0 L 783.0 461.0 L 783.0 475.0 L 782.0 476.0 L 782.0 482.0 L 781.0 483.0 L 781.0 489.0 L 779.0 495.0 L 779.0 500.0 L 778.0 501.0 L 777.0 509.0 L 773.0 521.0 L 773.0 524.0 L 767.0 542.0 L 763.0 550.0 L 763.0 552.0 L 750.0 579.0 L 748.0 581.0 L 746.0 586.0 L 739.0 596.0 L 738.0 599.0 L 735.0 602.0 L 728.0 613.0 L 714.0 630.0 L 690.0 654.0 L 666.0 673.0 L 665.0 677.0 L 654.0 699.0 L 650.0 704.0 L 645.0 713.0 L 628.0 733.0 L 614.0 746.0 L 593.0 761.0 L 569.0 773.0 L 561.0 775.0 L 558.0 777.0 L 548.0 779.0 L 544.0 781.0 L 539.0 781.0 L 534.0 783.0 L 521.0 784.0 L 528.0 784.0 L 529.0 783.0 L 541.0 783.0 L 542.0 782.0 L 548.0 782.0 L 549.0 781.0 L 556.0 781.0 L 557.0 780.0 L 568.0 779.0 L 573.0 777.0 L 586.0 775.0 L 590.0 773.0 L 594.0 773.0 L 598.0 771.0 L 601.0 771.0 L 604.0 769.0 L 607.0 769.0 L 619.0 765.0 L 627.0 761.0 L 632.0 760.0 L 662.0 746.0 L 664.0 744.0 L 678.0 737.0 L 698.0 724.0 L 723.0 705.0 L 731.0 697.0 L 732.0 697.0 L 764.0 664.0 L 784.0 638.0 L 785.0 635.0 L 788.0 632.0 L 789.0 629.0 L 798.0 616.0 L 813.0 587.0 L 813.0 585.0 L 815.0 583.0 L 815.0 581.0 L 823.0 563.0 L 825.0 555.0 L 827.0 552.0 L 827.0 549.0 L 829.0 545.0 L 829.0 542.0 L 831.0 539.0 L 831.0 536.0 L 833.0 532.0 L 833.0 528.0 L 835.0 524.0 L 835.0 519.0 L 837.0 515.0 L 837.0 510.0 L 839.0 505.0 L 839.0 498.0 L 841.0 492.0 L 842.0 476.0 L 843.0 475.0 L 843.0 453.0 L 844.0 452.0 L 843.0 415.0 L 842.0 414.0 L 842.0 408.0 L 841.0 407.0 L 841.0 398.0 L 839.0 392.0 L 839.0 385.0 L 837.0 380.0 L 837.0 375.0 L 835.0 371.0 L 835.0 366.0 L 833.0 362.0 L 833.0 358.0 L 831.0 354.0 L 831.0 351.0 L 829.0 348.0 L 827.0 338.0 L 825.0 335.0 L 823.0 327.0 L 821.0 324.0 L 817.0 312.0 L 804.0 285.0 L 802.0 283.0 L 793.0 266.0 L 781.0 248.0 L 771.0 236.0 L 768.0 231.0 L 762.0 225.0 L 756.0 217.0 L 732.0 193.0 L 725.0 188.0 L 724.0 186.0 L 698.0 166.0 L 686.0 158.0 L 681.0 156.0 L 676.0 152.0 L 671.0 150.0 L 662.0 144.0 L 660.0 144.0 L 658.0 142.0 L 652.0 140.0 L 650.0 138.0 L 648.0 138.0 L 641.0 134.0 L 634.0 132.0 L 632.0 130.0 L 629.0 130.0 L 616.0 124.0 L 613.0 124.0 L 610.0 122.0 L 607.0 122.0 L 589.0 116.0 L 585.0 116.0 L 581.0 114.0 L 577.0 114.0 L 572.0 112.0 L 567.0 112.0 L 562.0 110.0 L 549.0 109.0 L 548.0 108.0 L 539.0 108.0 L 538.0 107.0 L 530.0 107.0 L 529.0 106.0 Z"/>
<path fill="#1A1B1B" fill-rule="evenodd" d="M 1479.0 402.0 L 1479.0 403.0 L 1480.0 404.0 L 1481.0 404.0 L 1482.0 405.0 L 1485.0 405.0 L 1487.0 407.0 L 1487.0 408.0 L 1488.0 409.0 L 1488.0 412.0 L 1489.0 413.0 L 1489.0 541.0 L 1488.0 542.0 L 1488.0 544.0 L 1487.0 545.0 L 1487.0 546.0 L 1485.0 548.0 L 1484.0 548.0 L 1483.0 549.0 L 1479.0 549.0 L 1479.0 552.0 L 1535.0 552.0 L 1535.0 549.0 L 1534.0 549.0 L 1531.0 546.0 L 1531.0 540.0 L 1530.0 539.0 L 1530.0 400.0 L 1505.0 400.0 L 1504.0 401.0 L 1485.0 401.0 L 1484.0 402.0 Z M 1313.0 400.0 L 1313.0 404.0 L 1315.0 404.0 L 1316.0 405.0 L 1317.0 405.0 L 1319.0 407.0 L 1319.0 408.0 L 1321.0 410.0 L 1321.0 411.0 L 1323.0 413.0 L 1323.0 414.0 L 1325.0 417.0 L 1325.0 419.0 L 1327.0 422.0 L 1327.0 424.0 L 1328.0 425.0 L 1328.0 426.0 L 1329.0 427.0 L 1329.0 429.0 L 1331.0 432.0 L 1331.0 435.0 L 1333.0 438.0 L 1333.0 440.0 L 1335.0 443.0 L 1335.0 445.0 L 1337.0 448.0 L 1337.0 450.0 L 1339.0 453.0 L 1339.0 455.0 L 1341.0 458.0 L 1341.0 460.0 L 1343.0 463.0 L 1343.0 465.0 L 1345.0 468.0 L 1345.0 470.0 L 1346.0 471.0 L 1346.0 472.0 L 1347.0 473.0 L 1347.0 475.0 L 1349.0 478.0 L 1349.0 481.0 L 1351.0 484.0 L 1351.0 486.0 L 1353.0 489.0 L 1353.0 491.0 L 1355.0 494.0 L 1355.0 496.0 L 1357.0 499.0 L 1357.0 501.0 L 1359.0 504.0 L 1359.0 506.0 L 1361.0 509.0 L 1361.0 511.0 L 1362.0 512.0 L 1362.0 513.0 L 1363.0 514.0 L 1363.0 516.0 L 1365.0 519.0 L 1365.0 521.0 L 1366.0 522.0 L 1366.0 524.0 L 1367.0 525.0 L 1367.0 527.0 L 1369.0 530.0 L 1369.0 532.0 L 1371.0 535.0 L 1371.0 537.0 L 1373.0 540.0 L 1373.0 542.0 L 1375.0 545.0 L 1375.0 547.0 L 1377.0 550.0 L 1377.0 552.0 L 1378.0 553.0 L 1378.0 554.0 L 1405.0 554.0 L 1405.0 553.0 L 1406.0 552.0 L 1406.0 550.0 L 1407.0 549.0 L 1407.0 547.0 L 1409.0 544.0 L 1409.0 542.0 L 1411.0 539.0 L 1411.0 537.0 L 1413.0 534.0 L 1413.0 532.0 L 1415.0 529.0 L 1415.0 527.0 L 1416.0 526.0 L 1416.0 525.0 L 1417.0 524.0 L 1417.0 522.0 L 1419.0 519.0 L 1419.0 516.0 L 1421.0 513.0 L 1421.0 511.0 L 1423.0 508.0 L 1423.0 506.0 L 1425.0 503.0 L 1425.0 501.0 L 1426.0 500.0 L 1426.0 499.0 L 1427.0 498.0 L 1427.0 496.0 L 1429.0 493.0 L 1429.0 490.0 L 1431.0 488.0 L 1431.0 485.0 L 1433.0 482.0 L 1433.0 480.0 L 1435.0 477.0 L 1435.0 475.0 L 1437.0 472.0 L 1437.0 470.0 L 1439.0 467.0 L 1439.0 465.0 L 1440.0 464.0 L 1440.0 463.0 L 1441.0 462.0 L 1441.0 460.0 L 1443.0 457.0 L 1443.0 454.0 L 1445.0 451.0 L 1445.0 449.0 L 1447.0 446.0 L 1447.0 444.0 L 1449.0 441.0 L 1449.0 439.0 L 1451.0 436.0 L 1451.0 434.0 L 1453.0 431.0 L 1453.0 429.0 L 1454.0 428.0 L 1454.0 427.0 L 1455.0 426.0 L 1455.0 424.0 L 1457.0 421.0 L 1457.0 418.0 L 1459.0 415.0 L 1459.0 413.0 L 1461.0 411.0 L 1461.0 409.0 L 1463.0 407.0 L 1463.0 406.0 L 1464.0 405.0 L 1465.0 405.0 L 1466.0 404.0 L 1468.0 404.0 L 1469.0 403.0 L 1469.0 400.0 L 1424.0 400.0 L 1424.0 403.0 L 1425.0 403.0 L 1426.0 404.0 L 1429.0 404.0 L 1430.0 405.0 L 1431.0 405.0 L 1433.0 407.0 L 1433.0 414.0 L 1432.0 415.0 L 1432.0 417.0 L 1431.0 418.0 L 1431.0 420.0 L 1429.0 423.0 L 1429.0 426.0 L 1427.0 429.0 L 1427.0 432.0 L 1426.0 433.0 L 1426.0 434.0 L 1425.0 435.0 L 1425.0 437.0 L 1423.0 440.0 L 1423.0 443.0 L 1421.0 446.0 L 1421.0 449.0 L 1419.0 452.0 L 1419.0 454.0 L 1418.0 455.0 L 1418.0 457.0 L 1417.0 458.0 L 1417.0 460.0 L 1415.0 463.0 L 1415.0 466.0 L 1413.0 469.0 L 1413.0 472.0 L 1411.0 475.0 L 1411.0 477.0 L 1410.0 478.0 L 1410.0 480.0 L 1409.0 481.0 L 1409.0 483.0 L 1407.0 486.0 L 1407.0 489.0 L 1405.0 492.0 L 1405.0 495.0 L 1403.0 498.0 L 1403.0 500.0 L 1401.0 502.0 L 1400.0 502.0 L 1399.0 501.0 L 1399.0 498.0 L 1398.0 497.0 L 1398.0 496.0 L 1397.0 495.0 L 1397.0 493.0 L 1395.0 490.0 L 1395.0 487.0 L 1394.0 486.0 L 1394.0 485.0 L 1393.0 484.0 L 1393.0 482.0 L 1391.0 479.0 L 1391.0 476.0 L 1389.0 473.0 L 1389.0 471.0 L 1388.0 470.0 L 1388.0 468.0 L 1387.0 467.0 L 1387.0 465.0 L 1386.0 464.0 L 1386.0 463.0 L 1385.0 462.0 L 1385.0 460.0 L 1383.0 457.0 L 1383.0 454.0 L 1381.0 451.0 L 1381.0 449.0 L 1380.0 448.0 L 1380.0 446.0 L 1379.0 445.0 L 1379.0 443.0 L 1378.0 442.0 L 1378.0 441.0 L 1377.0 440.0 L 1377.0 438.0 L 1375.0 435.0 L 1375.0 432.0 L 1373.0 429.0 L 1373.0 427.0 L 1372.0 426.0 L 1372.0 424.0 L 1371.0 423.0 L 1371.0 421.0 L 1369.0 418.0 L 1369.0 416.0 L 1368.0 415.0 L 1368.0 413.0 L 1367.0 412.0 L 1367.0 406.0 L 1370.0 404.0 L 1375.0 404.0 L 1376.0 403.0 L 1376.0 401.0 L 1375.0 400.0 Z M 1884.0 401.0 L 1866.0 401.0 L 1865.0 402.0 L 1861.0 402.0 L 1860.0 403.0 L 1852.0 403.0 L 1851.0 404.0 L 1848.0 404.0 L 1847.0 405.0 L 1839.0 405.0 L 1838.0 404.0 L 1837.0 404.0 L 1832.0 401.0 L 1830.0 401.0 L 1827.0 399.0 L 1823.0 399.0 L 1822.0 398.0 L 1819.0 398.0 L 1818.0 397.0 L 1792.0 397.0 L 1791.0 398.0 L 1788.0 398.0 L 1787.0 399.0 L 1783.0 399.0 L 1780.0 401.0 L 1778.0 401.0 L 1777.0 402.0 L 1776.0 402.0 L 1775.0 403.0 L 1774.0 403.0 L 1773.0 404.0 L 1770.0 405.0 L 1768.0 407.0 L 1767.0 407.0 L 1765.0 409.0 L 1764.0 409.0 L 1755.0 417.0 L 1755.0 418.0 L 1752.0 421.0 L 1752.0 422.0 L 1748.0 427.0 L 1748.0 428.0 L 1747.0 429.0 L 1747.0 430.0 L 1744.0 435.0 L 1744.0 438.0 L 1742.0 441.0 L 1742.0 445.0 L 1741.0 446.0 L 1741.0 451.0 L 1740.0 452.0 L 1740.0 460.0 L 1741.0 461.0 L 1741.0 466.0 L 1742.0 467.0 L 1742.0 471.0 L 1744.0 474.0 L 1744.0 477.0 L 1745.0 478.0 L 1745.0 479.0 L 1746.0 480.0 L 1747.0 483.0 L 1749.0 485.0 L 1750.0 488.0 L 1754.0 492.0 L 1754.0 493.0 L 1760.0 499.0 L 1761.0 499.0 L 1764.0 502.0 L 1765.0 502.0 L 1767.0 504.0 L 1768.0 504.0 L 1770.0 506.0 L 1770.0 507.0 L 1769.0 508.0 L 1768.0 508.0 L 1767.0 509.0 L 1766.0 509.0 L 1765.0 510.0 L 1762.0 511.0 L 1760.0 513.0 L 1759.0 513.0 L 1757.0 515.0 L 1756.0 515.0 L 1748.0 523.0 L 1748.0 524.0 L 1747.0 525.0 L 1747.0 526.0 L 1744.0 531.0 L 1744.0 541.0 L 1745.0 542.0 L 1745.0 544.0 L 1747.0 546.0 L 1747.0 547.0 L 1751.0 551.0 L 1752.0 551.0 L 1755.0 554.0 L 1757.0 554.0 L 1759.0 556.0 L 1759.0 558.0 L 1758.0 559.0 L 1757.0 559.0 L 1756.0 560.0 L 1754.0 560.0 L 1753.0 561.0 L 1752.0 561.0 L 1751.0 562.0 L 1748.0 563.0 L 1745.0 566.0 L 1744.0 566.0 L 1742.0 568.0 L 1741.0 568.0 L 1740.0 569.0 L 1740.0 570.0 L 1737.0 573.0 L 1737.0 574.0 L 1734.0 579.0 L 1734.0 583.0 L 1733.0 584.0 L 1733.0 590.0 L 1734.0 591.0 L 1734.0 596.0 L 1735.0 597.0 L 1735.0 598.0 L 1736.0 599.0 L 1737.0 602.0 L 1747.0 612.0 L 1748.0 612.0 L 1749.0 613.0 L 1752.0 614.0 L 1754.0 616.0 L 1756.0 616.0 L 1759.0 618.0 L 1761.0 618.0 L 1764.0 620.0 L 1767.0 620.0 L 1768.0 621.0 L 1770.0 621.0 L 1771.0 622.0 L 1776.0 622.0 L 1777.0 623.0 L 1780.0 623.0 L 1781.0 624.0 L 1790.0 624.0 L 1791.0 625.0 L 1798.0 625.0 L 1799.0 626.0 L 1816.0 626.0 L 1817.0 625.0 L 1821.0 625.0 L 1822.0 624.0 L 1827.0 624.0 L 1830.0 622.0 L 1833.0 622.0 L 1834.0 621.0 L 1835.0 621.0 L 1840.0 618.0 L 1842.0 618.0 L 1843.0 617.0 L 1844.0 617.0 L 1849.0 614.0 L 1851.0 614.0 L 1853.0 612.0 L 1855.0 612.0 L 1857.0 610.0 L 1859.0 610.0 L 1861.0 608.0 L 1863.0 608.0 L 1865.0 606.0 L 1866.0 606.0 L 1868.0 604.0 L 1869.0 604.0 L 1877.0 596.0 L 1877.0 595.0 L 1879.0 593.0 L 1879.0 592.0 L 1881.0 589.0 L 1881.0 587.0 L 1882.0 586.0 L 1882.0 583.0 L 1883.0 582.0 L 1883.0 563.0 L 1882.0 562.0 L 1882.0 559.0 L 1881.0 558.0 L 1881.0 556.0 L 1880.0 555.0 L 1880.0 554.0 L 1879.0 553.0 L 1878.0 550.0 L 1872.0 544.0 L 1871.0 544.0 L 1869.0 542.0 L 1867.0 542.0 L 1864.0 540.0 L 1860.0 540.0 L 1859.0 539.0 L 1840.0 539.0 L 1839.0 540.0 L 1830.0 540.0 L 1829.0 541.0 L 1825.0 541.0 L 1824.0 542.0 L 1817.0 542.0 L 1816.0 543.0 L 1813.0 543.0 L 1812.0 544.0 L 1803.0 544.0 L 1802.0 545.0 L 1792.0 545.0 L 1791.0 544.0 L 1786.0 544.0 L 1785.0 543.0 L 1782.0 542.0 L 1777.0 537.0 L 1777.0 536.0 L 1776.0 535.0 L 1776.0 533.0 L 1775.0 532.0 L 1775.0 524.0 L 1776.0 523.0 L 1776.0 521.0 L 1780.0 517.0 L 1781.0 517.0 L 1782.0 516.0 L 1783.0 516.0 L 1785.0 514.0 L 1787.0 514.0 L 1790.0 512.0 L 1791.0 512.0 L 1792.0 513.0 L 1796.0 513.0 L 1797.0 514.0 L 1812.0 514.0 L 1813.0 513.0 L 1819.0 513.0 L 1820.0 512.0 L 1825.0 512.0 L 1826.0 511.0 L 1828.0 511.0 L 1829.0 510.0 L 1832.0 510.0 L 1835.0 508.0 L 1837.0 508.0 L 1838.0 507.0 L 1841.0 506.0 L 1843.0 504.0 L 1844.0 504.0 L 1846.0 502.0 L 1847.0 502.0 L 1850.0 499.0 L 1851.0 499.0 L 1857.0 493.0 L 1857.0 492.0 L 1861.0 487.0 L 1861.0 486.0 L 1862.0 485.0 L 1862.0 484.0 L 1865.0 479.0 L 1865.0 477.0 L 1866.0 476.0 L 1866.0 474.0 L 1867.0 473.0 L 1867.0 469.0 L 1868.0 468.0 L 1868.0 464.0 L 1869.0 463.0 L 1869.0 452.0 L 1868.0 451.0 L 1868.0 449.0 L 1867.0 448.0 L 1867.0 445.0 L 1865.0 442.0 L 1865.0 440.0 L 1863.0 437.0 L 1863.0 435.0 L 1861.0 432.0 L 1861.0 430.0 L 1859.0 428.0 L 1859.0 426.0 L 1857.0 424.0 L 1857.0 422.0 L 1859.0 420.0 L 1871.0 420.0 L 1872.0 421.0 L 1877.0 421.0 L 1878.0 422.0 L 1878.0 421.0 L 1879.0 420.0 L 1879.0 417.0 L 1880.0 416.0 L 1880.0 414.0 L 1881.0 413.0 L 1881.0 410.0 L 1882.0 409.0 L 1882.0 407.0 L 1883.0 406.0 L 1883.0 403.0 L 1884.0 402.0 Z M 1763.0 582.0 L 1764.0 581.0 L 1764.0 579.0 L 1766.0 577.0 L 1766.0 576.0 L 1771.0 571.0 L 1772.0 571.0 L 1775.0 568.0 L 1776.0 568.0 L 1777.0 567.0 L 1778.0 567.0 L 1783.0 564.0 L 1792.0 564.0 L 1793.0 565.0 L 1804.0 565.0 L 1805.0 566.0 L 1830.0 566.0 L 1831.0 567.0 L 1834.0 567.0 L 1835.0 568.0 L 1840.0 568.0 L 1841.0 569.0 L 1842.0 569.0 L 1843.0 570.0 L 1845.0 570.0 L 1847.0 572.0 L 1848.0 572.0 L 1853.0 577.0 L 1853.0 578.0 L 1854.0 579.0 L 1854.0 585.0 L 1853.0 586.0 L 1853.0 588.0 L 1851.0 590.0 L 1851.0 591.0 L 1850.0 592.0 L 1849.0 592.0 L 1844.0 596.0 L 1842.0 596.0 L 1841.0 597.0 L 1839.0 597.0 L 1838.0 598.0 L 1834.0 598.0 L 1833.0 599.0 L 1831.0 599.0 L 1830.0 600.0 L 1821.0 600.0 L 1820.0 601.0 L 1810.0 601.0 L 1809.0 602.0 L 1795.0 602.0 L 1794.0 601.0 L 1787.0 601.0 L 1786.0 600.0 L 1781.0 600.0 L 1780.0 599.0 L 1778.0 599.0 L 1777.0 598.0 L 1775.0 598.0 L 1774.0 597.0 L 1771.0 596.0 L 1764.0 589.0 L 1764.0 586.0 L 1763.0 585.0 Z M 1799.0 415.0 L 1811.0 415.0 L 1814.0 417.0 L 1816.0 417.0 L 1823.0 424.0 L 1823.0 425.0 L 1826.0 430.0 L 1826.0 432.0 L 1827.0 433.0 L 1827.0 437.0 L 1828.0 438.0 L 1828.0 443.0 L 1829.0 444.0 L 1829.0 468.0 L 1828.0 469.0 L 1828.0 474.0 L 1827.0 475.0 L 1827.0 478.0 L 1826.0 479.0 L 1826.0 481.0 L 1825.0 482.0 L 1824.0 485.0 L 1816.0 493.0 L 1815.0 493.0 L 1814.0 494.0 L 1811.0 494.0 L 1810.0 495.0 L 1801.0 495.0 L 1800.0 494.0 L 1798.0 494.0 L 1797.0 493.0 L 1795.0 493.0 L 1787.0 485.0 L 1787.0 484.0 L 1785.0 481.0 L 1785.0 479.0 L 1784.0 478.0 L 1784.0 476.0 L 1783.0 475.0 L 1783.0 472.0 L 1782.0 471.0 L 1782.0 436.0 L 1783.0 435.0 L 1783.0 433.0 L 1784.0 432.0 L 1784.0 429.0 L 1785.0 428.0 L 1786.0 425.0 L 1794.0 417.0 L 1796.0 417.0 Z M 1196.0 406.0 L 1186.0 416.0 L 1186.0 417.0 L 1182.0 422.0 L 1182.0 424.0 L 1180.0 427.0 L 1180.0 430.0 L 1179.0 431.0 L 1179.0 433.0 L 1178.0 434.0 L 1178.0 439.0 L 1177.0 440.0 L 1177.0 443.0 L 1181.0 443.0 L 1182.0 440.0 L 1184.0 438.0 L 1184.0 437.0 L 1186.0 435.0 L 1186.0 434.0 L 1188.0 432.0 L 1188.0 431.0 L 1192.0 427.0 L 1193.0 427.0 L 1195.0 425.0 L 1196.0 425.0 L 1201.0 421.0 L 1203.0 421.0 L 1205.0 419.0 L 1208.0 419.0 L 1211.0 417.0 L 1214.0 417.0 L 1215.0 416.0 L 1217.0 416.0 L 1218.0 415.0 L 1238.0 415.0 L 1241.0 417.0 L 1244.0 417.0 L 1245.0 418.0 L 1248.0 419.0 L 1250.0 421.0 L 1251.0 421.0 L 1257.0 427.0 L 1257.0 428.0 L 1259.0 431.0 L 1259.0 433.0 L 1260.0 434.0 L 1260.0 441.0 L 1261.0 442.0 L 1261.0 458.0 L 1260.0 459.0 L 1257.0 459.0 L 1256.0 460.0 L 1254.0 460.0 L 1253.0 461.0 L 1248.0 461.0 L 1247.0 462.0 L 1244.0 462.0 L 1243.0 463.0 L 1239.0 463.0 L 1238.0 464.0 L 1235.0 464.0 L 1234.0 465.0 L 1229.0 465.0 L 1228.0 466.0 L 1225.0 466.0 L 1224.0 467.0 L 1221.0 467.0 L 1220.0 468.0 L 1217.0 468.0 L 1216.0 469.0 L 1213.0 469.0 L 1212.0 470.0 L 1210.0 470.0 L 1209.0 471.0 L 1207.0 471.0 L 1206.0 472.0 L 1204.0 472.0 L 1203.0 473.0 L 1201.0 473.0 L 1200.0 474.0 L 1199.0 474.0 L 1198.0 475.0 L 1197.0 475.0 L 1196.0 476.0 L 1195.0 476.0 L 1194.0 477.0 L 1193.0 477.0 L 1192.0 478.0 L 1189.0 479.0 L 1186.0 482.0 L 1185.0 482.0 L 1183.0 484.0 L 1182.0 484.0 L 1182.0 485.0 L 1181.0 486.0 L 1180.0 486.0 L 1180.0 487.0 L 1179.0 488.0 L 1178.0 488.0 L 1178.0 489.0 L 1177.0 490.0 L 1176.0 490.0 L 1176.0 491.0 L 1172.0 496.0 L 1172.0 497.0 L 1170.0 500.0 L 1170.0 502.0 L 1169.0 503.0 L 1169.0 505.0 L 1168.0 506.0 L 1168.0 526.0 L 1169.0 527.0 L 1169.0 529.0 L 1170.0 530.0 L 1170.0 532.0 L 1171.0 533.0 L 1172.0 536.0 L 1174.0 538.0 L 1174.0 539.0 L 1185.0 550.0 L 1186.0 550.0 L 1187.0 551.0 L 1188.0 551.0 L 1193.0 554.0 L 1195.0 554.0 L 1196.0 555.0 L 1198.0 555.0 L 1199.0 556.0 L 1206.0 556.0 L 1207.0 557.0 L 1214.0 557.0 L 1215.0 556.0 L 1222.0 556.0 L 1223.0 555.0 L 1225.0 555.0 L 1226.0 554.0 L 1229.0 554.0 L 1232.0 552.0 L 1234.0 552.0 L 1235.0 551.0 L 1236.0 551.0 L 1237.0 550.0 L 1238.0 550.0 L 1239.0 549.0 L 1242.0 548.0 L 1244.0 546.0 L 1245.0 546.0 L 1247.0 544.0 L 1248.0 544.0 L 1251.0 541.0 L 1252.0 541.0 L 1260.0 533.0 L 1261.0 533.0 L 1262.0 534.0 L 1262.0 536.0 L 1263.0 537.0 L 1263.0 541.0 L 1264.0 542.0 L 1264.0 545.0 L 1265.0 546.0 L 1265.0 547.0 L 1267.0 549.0 L 1267.0 550.0 L 1270.0 553.0 L 1271.0 553.0 L 1272.0 554.0 L 1287.0 554.0 L 1288.0 553.0 L 1291.0 553.0 L 1292.0 552.0 L 1295.0 552.0 L 1296.0 551.0 L 1298.0 551.0 L 1299.0 550.0 L 1302.0 550.0 L 1305.0 548.0 L 1307.0 548.0 L 1308.0 547.0 L 1309.0 547.0 L 1310.0 546.0 L 1313.0 545.0 L 1311.0 542.0 L 1310.0 542.0 L 1309.0 543.0 L 1306.0 544.0 L 1303.0 541.0 L 1303.0 537.0 L 1302.0 536.0 L 1302.0 531.0 L 1301.0 530.0 L 1301.0 441.0 L 1300.0 440.0 L 1300.0 437.0 L 1299.0 436.0 L 1299.0 432.0 L 1298.0 431.0 L 1298.0 429.0 L 1297.0 428.0 L 1297.0 427.0 L 1296.0 426.0 L 1296.0 425.0 L 1295.0 424.0 L 1294.0 421.0 L 1292.0 419.0 L 1292.0 418.0 L 1290.0 416.0 L 1290.0 415.0 L 1289.0 415.0 L 1288.0 414.0 L 1288.0 413.0 L 1286.0 411.0 L 1285.0 411.0 L 1284.0 410.0 L 1284.0 409.0 L 1283.0 409.0 L 1278.0 405.0 L 1276.0 405.0 L 1274.0 403.0 L 1272.0 403.0 L 1269.0 401.0 L 1266.0 401.0 L 1263.0 399.0 L 1258.0 399.0 L 1257.0 398.0 L 1253.0 398.0 L 1252.0 397.0 L 1222.0 397.0 L 1221.0 398.0 L 1218.0 398.0 L 1217.0 399.0 L 1213.0 399.0 L 1212.0 400.0 L 1210.0 400.0 L 1209.0 401.0 L 1206.0 401.0 L 1205.0 402.0 L 1204.0 402.0 L 1203.0 403.0 L 1201.0 403.0 L 1199.0 405.0 Z M 1260.0 476.0 L 1261.0 477.0 L 1261.0 503.0 L 1260.0 504.0 L 1260.0 509.0 L 1259.0 510.0 L 1259.0 511.0 L 1258.0 512.0 L 1258.0 513.0 L 1257.0 514.0 L 1256.0 517.0 L 1247.0 526.0 L 1246.0 526.0 L 1244.0 528.0 L 1243.0 528.0 L 1242.0 529.0 L 1240.0 529.0 L 1239.0 530.0 L 1235.0 530.0 L 1234.0 531.0 L 1227.0 531.0 L 1226.0 530.0 L 1223.0 530.0 L 1222.0 529.0 L 1219.0 528.0 L 1217.0 526.0 L 1216.0 526.0 L 1214.0 524.0 L 1214.0 523.0 L 1210.0 518.0 L 1210.0 516.0 L 1209.0 515.0 L 1209.0 513.0 L 1208.0 512.0 L 1208.0 507.0 L 1209.0 506.0 L 1209.0 504.0 L 1210.0 503.0 L 1210.0 501.0 L 1211.0 500.0 L 1212.0 497.0 L 1215.0 494.0 L 1215.0 493.0 L 1219.0 489.0 L 1220.0 489.0 L 1223.0 486.0 L 1224.0 486.0 L 1229.0 483.0 L 1231.0 483.0 L 1234.0 481.0 L 1238.0 481.0 L 1239.0 480.0 L 1241.0 480.0 L 1242.0 479.0 L 1247.0 479.0 L 1248.0 478.0 L 1250.0 478.0 L 1251.0 477.0 L 1255.0 477.0 L 1256.0 476.0 Z M 1695.0 407.0 L 1694.0 407.0 L 1692.0 405.0 L 1691.0 405.0 L 1686.0 401.0 L 1685.0 401.0 L 1682.0 399.0 L 1679.0 399.0 L 1678.0 398.0 L 1676.0 398.0 L 1675.0 397.0 L 1669.0 397.0 L 1668.0 396.0 L 1660.0 396.0 L 1659.0 397.0 L 1652.0 397.0 L 1651.0 398.0 L 1649.0 398.0 L 1648.0 399.0 L 1645.0 399.0 L 1643.0 401.0 L 1641.0 401.0 L 1640.0 402.0 L 1639.0 402.0 L 1638.0 403.0 L 1637.0 403.0 L 1636.0 404.0 L 1633.0 405.0 L 1631.0 407.0 L 1630.0 407.0 L 1627.0 410.0 L 1626.0 410.0 L 1618.0 418.0 L 1618.0 419.0 L 1616.0 421.0 L 1615.0 421.0 L 1614.0 420.0 L 1614.0 400.0 L 1587.0 400.0 L 1586.0 401.0 L 1564.0 401.0 L 1564.0 404.0 L 1565.0 405.0 L 1567.0 405.0 L 1568.0 406.0 L 1569.0 406.0 L 1572.0 409.0 L 1572.0 411.0 L 1573.0 412.0 L 1573.0 543.0 L 1570.0 548.0 L 1568.0 548.0 L 1567.0 549.0 L 1564.0 549.0 L 1564.0 552.0 L 1622.0 552.0 L 1622.0 549.0 L 1621.0 549.0 L 1618.0 547.0 L 1618.0 546.0 L 1616.0 543.0 L 1616.0 541.0 L 1615.0 540.0 L 1615.0 455.0 L 1616.0 454.0 L 1616.0 450.0 L 1618.0 447.0 L 1618.0 445.0 L 1620.0 442.0 L 1620.0 440.0 L 1622.0 438.0 L 1622.0 437.0 L 1626.0 433.0 L 1626.0 432.0 L 1627.0 431.0 L 1628.0 431.0 L 1628.0 430.0 L 1629.0 429.0 L 1630.0 429.0 L 1635.0 425.0 L 1638.0 425.0 L 1639.0 424.0 L 1641.0 424.0 L 1642.0 423.0 L 1653.0 423.0 L 1654.0 424.0 L 1655.0 424.0 L 1656.0 425.0 L 1659.0 426.0 L 1665.0 432.0 L 1665.0 433.0 L 1668.0 438.0 L 1668.0 440.0 L 1669.0 441.0 L 1669.0 444.0 L 1670.0 445.0 L 1670.0 543.0 L 1667.0 548.0 L 1666.0 548.0 L 1665.0 549.0 L 1662.0 549.0 L 1662.0 552.0 L 1722.0 552.0 L 1721.0 549.0 L 1719.0 549.0 L 1718.0 548.0 L 1716.0 548.0 L 1714.0 546.0 L 1714.0 545.0 L 1712.0 542.0 L 1712.0 442.0 L 1711.0 441.0 L 1711.0 437.0 L 1710.0 436.0 L 1710.0 432.0 L 1709.0 431.0 L 1709.0 429.0 L 1708.0 428.0 L 1708.0 426.0 L 1707.0 425.0 L 1707.0 424.0 L 1706.0 423.0 L 1706.0 422.0 L 1705.0 421.0 L 1704.0 418.0 L 1702.0 416.0 L 1702.0 415.0 L 1699.0 412.0 L 1699.0 411.0 Z M 949.0 337.0 L 949.0 341.0 L 955.0 341.0 L 958.0 343.0 L 960.0 343.0 L 962.0 345.0 L 962.0 347.0 L 963.0 348.0 L 963.0 542.0 L 962.0 543.0 L 962.0 544.0 L 959.0 547.0 L 958.0 547.0 L 957.0 548.0 L 951.0 548.0 L 950.0 549.0 L 949.0 549.0 L 949.0 552.0 L 1026.0 552.0 L 1026.0 549.0 L 1021.0 549.0 L 1020.0 548.0 L 1015.0 548.0 L 1011.0 544.0 L 1011.0 542.0 L 1010.0 541.0 L 1010.0 454.0 L 1011.0 453.0 L 1091.0 453.0 L 1092.0 454.0 L 1092.0 543.0 L 1087.0 548.0 L 1080.0 548.0 L 1079.0 549.0 L 1077.0 549.0 L 1077.0 552.0 L 1155.0 552.0 L 1155.0 549.0 L 1150.0 549.0 L 1149.0 548.0 L 1145.0 548.0 L 1144.0 547.0 L 1143.0 547.0 L 1141.0 545.0 L 1141.0 544.0 L 1140.0 543.0 L 1140.0 540.0 L 1139.0 539.0 L 1139.0 351.0 L 1140.0 350.0 L 1140.0 346.0 L 1143.0 343.0 L 1144.0 343.0 L 1145.0 342.0 L 1147.0 342.0 L 1148.0 341.0 L 1154.0 341.0 L 1154.0 337.0 L 1077.0 337.0 L 1077.0 341.0 L 1085.0 341.0 L 1086.0 342.0 L 1089.0 343.0 L 1090.0 344.0 L 1090.0 345.0 L 1092.0 347.0 L 1092.0 428.0 L 1091.0 429.0 L 1011.0 429.0 L 1010.0 428.0 L 1010.0 349.0 L 1011.0 348.0 L 1011.0 346.0 L 1014.0 343.0 L 1015.0 343.0 L 1016.0 342.0 L 1018.0 342.0 L 1019.0 341.0 L 1025.0 341.0 L 1026.0 340.0 L 1026.0 338.0 L 1025.0 337.0 Z M 1500.0 330.0 L 1499.0 331.0 L 1498.0 331.0 L 1497.0 332.0 L 1494.0 333.0 L 1489.0 338.0 L 1489.0 339.0 L 1487.0 342.0 L 1487.0 344.0 L 1486.0 345.0 L 1486.0 349.0 L 1485.0 350.0 L 1485.0 351.0 L 1486.0 352.0 L 1486.0 356.0 L 1487.0 357.0 L 1487.0 359.0 L 1488.0 360.0 L 1488.0 361.0 L 1496.0 369.0 L 1498.0 369.0 L 1500.0 371.0 L 1505.0 371.0 L 1506.0 372.0 L 1510.0 372.0 L 1511.0 371.0 L 1516.0 371.0 L 1518.0 369.0 L 1520.0 369.0 L 1522.0 367.0 L 1523.0 367.0 L 1523.0 366.0 L 1524.0 365.0 L 1525.0 365.0 L 1525.0 364.0 L 1528.0 361.0 L 1528.0 360.0 L 1529.0 359.0 L 1529.0 356.0 L 1530.0 355.0 L 1530.0 344.0 L 1529.0 343.0 L 1529.0 341.0 L 1528.0 340.0 L 1527.0 337.0 L 1523.0 333.0 L 1522.0 333.0 L 1517.0 330.0 L 1515.0 330.0 L 1514.0 329.0 L 1503.0 329.0 L 1502.0 330.0 Z"/>
</svg>